<svg
  xmlns="http://www.w3.org/2000/svg" width="100%" height="100%"
  viewBox="-5 -5 20 20" id="jh_logo" shape-rendering="crispEdges" id="alpaka">
   <defs></defs>
   <clipPath id="circle">
      <path fill="black" d="
      M -3.5, 5.5
         a 9,9 0 1,0 18,0
         a 9,9 0 1,0 -18,0

M 1,0 3,0 3,1 4,1 4,2 7,2 7,1 8,1 8,0 10,0 10,1 11,1 11,5 9,5 9,4 2,4 2,5 0,5 0,1 1,1 1,0
M 1,5 1,8 2,8 2,9 3,9 3,10 8,10 8,9 9,9 9,8 10,8 10,5 11,5 11,9 10,9 10,10 9,10 9,11 2,11 2,10 1,10 1,9 0,9 0,5

M 5,7 5,8 6,8 6,7 7,7 7,9 4,9 4,7

M 2,6 3,6 3,7 2,7 2,6
M 8,6 9,6 9,7 8,7 8,6" />
   </clipPath>
   <g id="color"  clip-path="url(#circle)">
      <g id="flagContainer">
      </g>
   </g>
</svg>
